<svg width="905" height="146" viewBox="0 0 905 146" fill="none" xmlns="http://www.w3.org/2000/svg">
<path d="M54.7636 145.4C49.297 145.4 43.8303 145 38.3636 144.2C32.897 143.4 27.497 142.2 22.1636 140.6C16.9636 138.867 12.097 136.8 7.56364 134.4C4.49697 132.667 2.36364 130.533 1.16364 128C0.0969696 125.333 -0.236364 122.667 0.163636 120C0.563636 117.333 1.6303 115 3.36364 113C5.09697 110.867 7.29697 109.533 9.96364 109C12.6303 108.333 15.697 108.867 19.1636 110.6C25.297 113.8 31.697 116.133 38.3636 117.6C45.1636 118.933 51.5636 119.6 57.5636 119.6C66.097 119.6 72.697 118.067 77.3636 115C82.1636 111.933 84.5636 108 84.5636 103.2C84.5636 99.3333 83.1636 96.1333 80.3636 93.6C77.5636 91.0667 72.897 89.0667 66.3636 87.6L43.7636 82.2C33.897 79.9333 26.0303 75.7333 20.1636 69.6C14.4303 63.4667 11.5636 55.5333 11.5636 45.8C11.5636 38.6 13.0303 32.2 15.9636 26.6C19.0303 20.8667 23.2303 16.0667 28.5636 12.2C34.0303 8.19999 40.2303 5.2 47.1636 3.2C54.2303 1.06667 61.6303 0 69.3636 0C76.0303 0 83.2303 0.866667 90.9636 2.6C98.8303 4.33333 106.097 7.19999 112.764 11.2C115.43 12.8 117.297 14.8667 118.364 17.4C119.43 19.8 119.764 22.3333 119.364 25C119.097 27.5333 118.097 29.7333 116.364 31.6C114.764 33.4667 112.497 34.6667 109.564 35.2C106.764 35.6 103.364 34.8667 99.3636 33C94.9636 30.7333 90.0303 29 84.5636 27.8C79.2303 26.4667 74.0303 25.8 68.9636 25.8C63.6303 25.8 58.897 26.5333 54.7636 28C50.7636 29.4667 47.6303 31.4667 45.3636 34C43.2303 36.5333 42.1636 39.5333 42.1636 43C42.1636 47 43.4303 50.2 45.9636 52.6C48.6303 54.8667 52.5636 56.6667 57.7636 58L80.1636 63.4C91.6303 66.0667 100.297 70.5333 106.164 76.8C112.164 83.0667 115.164 90.6 115.164 99.4C115.164 107.133 113.564 113.867 110.364 119.6C107.164 125.333 102.697 130.133 96.9636 134C91.3636 137.733 84.897 140.6 77.5636 142.6C70.3636 144.467 62.7636 145.4 54.7636 145.4Z" fill="#E49B75"/>
<path d="M418.364 145C413.03 145 409.164 143.467 406.764 140.4C404.364 137.2 403.564 132.867 404.364 127.4L421.764 17.2002C422.564 12.2669 424.43 8.53352 427.364 6.00019C430.297 3.46686 434.23 2.2002 439.164 2.2002H506.164C510.297 2.2002 513.43 3.06686 515.564 4.8002C517.83 6.4002 518.964 8.8002 518.964 12.0002C518.964 16.4002 517.697 19.9335 515.164 22.6002C512.764 25.1335 509.23 26.4002 504.564 26.4002H451.564L445.964 60.8002H492.564C496.697 60.8002 499.83 61.6669 501.964 63.4002C504.23 65.0002 505.364 67.4002 505.364 70.6002C505.364 74.8669 504.097 78.3335 501.564 81.0002C499.03 83.6669 495.497 85.0002 490.964 85.0002H442.164L435.164 129.8C433.564 139.934 427.964 145 418.364 145Z" fill="#ECB57A"/>
<path d="M190.164 145.4C180.03 145.4 171.364 143.533 164.164 139.8C156.964 136.067 151.43 130.8 147.564 124C143.83 117.2 141.964 109.267 141.964 100.2C141.964 91.1333 143.43 83.0667 146.364 76C149.43 68.8 153.564 62.8 158.764 58C164.097 53.0667 170.097 49.3333 176.764 46.8C183.564 44.2667 190.697 43 198.164 43C208.297 43 216.964 44.8667 224.164 48.6C231.364 52.2 236.897 57.4 240.764 64.2C244.63 71 246.564 78.9333 246.564 88C246.564 97.2 245.03 105.333 241.964 112.4C238.897 119.467 234.697 125.467 229.364 130.4C224.164 135.333 218.164 139.067 211.364 141.6C204.697 144.133 197.63 145.4 190.164 145.4ZM190.964 122.8C196.297 122.8 200.764 121.267 204.364 118.2C208.097 115 210.964 110.733 212.964 105.4C215.097 99.9333 216.164 93.8 216.164 87C216.164 80.0667 214.497 74.8 211.164 71.2C207.83 67.4667 203.297 65.6 197.564 65.6C192.364 65.6 187.83 67.1333 183.964 70.2C180.23 73.2667 177.364 77.5333 175.364 83C173.364 88.3333 172.364 94.4 172.364 101.2C172.364 108.133 173.964 113.467 177.164 117.2C180.497 120.933 185.097 122.8 190.964 122.8Z" fill="#E49B75"/>
<path d="M320.164 145.4C310.03 145.4 301.364 143.533 294.164 139.8C286.964 136.067 281.43 130.8 277.564 124C273.83 117.2 271.964 109.267 271.964 100.2C271.964 91.1333 273.43 83.0667 276.364 76C279.43 68.8 283.564 62.8 288.764 58C294.097 53.0667 300.097 49.3333 306.764 46.8C313.564 44.2667 320.697 43 328.164 43C338.297 43 346.964 44.8667 354.164 48.6C361.364 52.2 366.897 57.4 370.764 64.2C374.63 71 376.564 78.9333 376.564 88C376.564 97.2 375.03 105.333 371.964 112.4C368.897 119.467 364.697 125.467 359.364 130.4C354.164 135.333 348.164 139.067 341.364 141.6C334.697 144.133 327.63 145.4 320.164 145.4ZM320.964 122.8C326.297 122.8 330.764 121.267 334.364 118.2C338.097 115 340.964 110.733 342.964 105.4C345.097 99.9333 346.164 93.8 346.164 87C346.164 80.0667 344.497 74.8 341.164 71.2C337.83 67.4667 333.297 65.6 327.564 65.6C322.364 65.6 317.83 67.1333 313.964 70.2C310.23 73.2667 307.364 77.5333 305.364 83C303.364 88.3333 302.364 94.4 302.364 101.2C302.364 108.133 303.964 113.467 307.164 117.2C310.497 120.933 315.097 122.8 320.964 122.8Z" fill="#E49B75"/>
<path d="M656.164 145.4C646.03 145.4 637.364 143.533 630.164 139.8C622.964 136.067 617.43 130.8 613.564 124C609.83 117.2 607.964 109.267 607.964 100.2C607.964 91.1333 609.43 83.0667 612.364 76C615.43 68.8 619.564 62.8 624.764 58C630.097 53.0667 636.097 49.3333 642.764 46.8C649.564 44.2667 656.697 43 664.164 43C674.297 43 682.964 44.8667 690.164 48.6C697.364 52.2 702.897 57.4 706.764 64.2C710.63 71 712.564 78.9333 712.564 88C712.564 97.2 711.03 105.333 707.964 112.4C704.897 119.467 700.697 125.467 695.364 130.4C690.164 135.333 684.164 139.067 677.364 141.6C670.697 144.133 663.63 145.4 656.164 145.4ZM656.964 122.8C662.297 122.8 666.764 121.267 670.364 118.2C674.097 115 676.964 110.733 678.964 105.4C681.097 99.9333 682.164 93.8 682.164 87C682.164 80.0667 680.497 74.8 677.164 71.2C673.83 67.4667 669.297 65.6 663.564 65.6C658.364 65.6 653.83 67.1333 649.964 70.2C646.23 73.2667 643.364 77.5333 641.364 83C639.364 88.3333 638.364 94.4 638.364 101.2C638.364 108.133 639.964 113.467 643.164 117.2C646.497 120.933 651.097 122.8 656.964 122.8Z" fill="#ECB57A"/>
<path d="M775.564 145C771.564 145 768.23 143.934 765.564 141.8C762.897 139.534 760.964 136.067 759.764 131.4L743.164 63.8004C742.097 59.6671 741.964 56.1337 742.764 53.2004C743.697 50.1337 745.364 47.7337 747.764 46.0004C750.164 44.2671 753.164 43.4004 756.764 43.4004C760.497 43.4004 763.364 44.4004 765.364 46.4004C767.364 48.2671 768.897 51.6004 769.964 56.4004L782.164 114H777.164L810.364 51.8004C811.964 48.7337 813.764 46.6004 815.764 45.4004C817.897 44.0671 820.63 43.4004 823.964 43.4004C827.03 43.4004 829.564 44.2671 831.564 46.0004C833.564 47.6004 834.964 50.2004 835.764 53.8004L848.364 114H844.764L876.164 54.6004C878.43 50.4671 880.764 47.6004 883.164 46.0004C885.564 44.2671 888.764 43.4004 892.764 43.4004C896.63 43.4004 899.564 44.2671 901.564 46.0004C903.697 47.6004 904.83 49.7337 904.964 52.4004C905.097 55.0671 904.297 58.0671 902.564 61.4004L861.764 134C859.764 137.734 857.297 140.534 854.364 142.4C851.43 144.134 847.964 145 843.964 145C840.097 145 836.764 143.867 833.964 141.6C831.297 139.334 829.364 135.934 828.164 131.4L814.164 70.4004H827.164L793.364 133.6C791.364 137.467 788.897 140.334 785.964 142.2C783.164 144.067 779.697 145 775.564 145Z" fill="#ECB57A"/>
<path d="M562.964 145.4C551.097 145.4 542.497 142.067 537.164 135.4C531.83 128.6 530.164 118.8 532.164 106L546.764 15.6004C547.43 10.5337 549.23 6.73372 552.164 4.20039C555.097 1.66706 559.097 0.400391 564.164 0.400391C568.83 0.400391 572.23 2.00039 574.364 5.20039C576.497 8.26706 577.164 12.5337 576.364 18.0004L562.364 105.6C561.564 110.8 562.03 114.667 563.764 117.2C565.63 119.734 568.43 121 572.164 121C573.497 121 574.564 120.934 575.364 120.8C576.297 120.667 577.164 120.6 577.964 120.6C579.564 120.6 580.83 121.134 581.764 122.2C582.697 123.267 583.164 125.334 583.164 128.4C583.164 133.067 582.23 136.667 580.364 139.2C578.497 141.6 576.297 143.2 573.764 144C572.564 144.4 570.897 144.734 568.764 145C566.764 145.267 564.83 145.4 562.964 145.4Z" fill="#ECB57A"/>
</svg>
